<svg width="38" height="38" viewBox="0 0 38 38" fill="none" xmlns="http://www.w3.org/2000/svg">
<path d="M36.4669 11.5954C35.5178 9.33109 34.1489 7.30418 32.3967 5.55118C30.6628 3.81643 28.6186 2.4469 26.3554 1.4791C24.0375 0.511292 21.537 0 18.9817 0C16.4265 0 13.926 0.511293 11.5898 1.49736C9.32661 2.4469 7.30067 3.81643 5.56676 5.56944C3.83285 7.30418 2.46398 9.34935 1.49664 11.6136C0.511047 13.9327 0 16.4344 0 18.9909C0 21.5473 0.511047 24.049 1.49664 26.3864C2.44573 28.6506 3.8146 30.6776 5.56676 32.4306C7.30067 34.1653 9.34486 35.5348 11.6081 36.5026C13.9443 37.4887 16.4265 38 19 38C21.5735 38 24.0557 37.4887 26.3919 36.5026C28.6551 35.5531 30.6811 34.1836 32.4332 32.4306C34.1671 30.6958 35.536 28.6506 36.5034 26.3864C37.489 24.049 38 21.5656 38 18.9909C37.9635 16.4344 37.4524 13.9327 36.4669 11.5954ZM30.5533 30.568C27.7791 33.3436 24.1835 35.0053 20.3141 35.2975L20.2776 24.1221L24.5668 26.8611C24.7858 27.0072 25.0231 27.062 25.2603 27.062C25.6984 27.062 26.1182 26.8429 26.3554 26.4594C26.7387 25.8568 26.5562 25.0351 25.9539 24.6516L19.6571 20.6343C19.6388 20.6343 19.6206 20.616 19.6206 20.616C19.6023 20.5978 19.5841 20.5978 19.5658 20.5795C19.5658 20.5795 19.5476 20.5795 19.5476 20.5613C19.5293 20.5613 19.5293 20.543 19.511 20.543C19.4928 20.543 19.4745 20.5247 19.4563 20.5247C19.4563 20.5247 19.438 20.5247 19.438 20.5065C19.4198 20.5065 19.4198 20.5065 19.4015 20.4882C19.3833 20.4882 19.365 20.47 19.3468 20.47C19.3285 20.47 19.3285 20.47 19.3103 20.47H19.292H19.2738C19.2555 20.47 19.2373 20.4517 19.219 20.4517C19.2008 20.4517 19.2008 20.4517 19.1825 20.4517C19.1643 20.4517 19.1643 20.4517 19.146 20.4517C19.1278 20.4517 19.1095 20.4517 19.0913 20.4517H19.073C19.0548 20.4517 19.0365 20.4517 19.0183 20.4517C19 20.4517 19 20.4517 18.9817 20.4517C18.9817 20.4517 18.9817 20.4517 18.9635 20.4517H18.9452C18.927 20.4517 18.8905 20.4517 18.8722 20.4517C18.854 20.4517 18.8357 20.4517 18.8357 20.4517C18.8175 20.4517 18.781 20.4517 18.7627 20.47C18.7445 20.47 18.7262 20.47 18.708 20.47C18.6897 20.47 18.6715 20.4882 18.6532 20.4882C18.635 20.4882 18.6167 20.5065 18.5985 20.5065C18.5802 20.5065 18.562 20.5247 18.5437 20.5247C18.5255 20.5247 18.5072 20.543 18.4707 20.543C18.4707 20.543 18.4707 20.543 18.4524 20.543C18.4342 20.543 18.4342 20.5613 18.4159 20.5613C18.3977 20.5795 18.3794 20.5795 18.3612 20.5978C18.3612 20.5978 18.3429 20.5978 18.3429 20.616L11.7906 24.4142C11.17 24.7794 10.951 25.5829 11.316 26.2037C11.5533 26.6237 11.9914 26.8611 12.4476 26.8611C12.6667 26.8611 12.9039 26.8063 13.1047 26.6785L17.6859 24.0125L17.7224 35.2975C13.8348 35.0053 10.2209 33.3436 7.44669 30.5497C4.32565 27.482 2.60999 23.3734 2.60999 18.9909C2.60999 16.4527 3.17579 14.0058 4.27089 11.7963L13.6523 17.1466L9.1806 19.5569C8.54179 19.9039 8.30451 20.6891 8.6513 21.3282C8.88857 21.7665 9.34486 22.0221 9.80115 22.0221C10.0019 22.0221 10.2209 21.9673 10.4217 21.8578L16.9741 18.3152C16.9741 18.3152 16.9923 18.3152 16.9923 18.297C17.0106 18.297 17.0106 18.2787 17.0288 18.2787C17.0471 18.2605 17.0653 18.2605 17.1018 18.2422C17.1201 18.2422 17.1201 18.2239 17.1201 18.2239C17.1383 18.2057 17.1566 18.2057 17.1566 18.1874C17.1566 18.1874 17.1748 18.1691 17.1931 18.1691C17.2113 18.1509 17.2296 18.1326 17.2478 18.1144L17.2661 18.0961C17.2843 18.0778 17.3026 18.0596 17.3208 18.0231L17.3391 18.0048L17.3573 17.9865L17.3756 17.9683L17.3939 17.95C17.4121 17.9318 17.4121 17.9318 17.4304 17.9135C17.4486 17.8952 17.4486 17.877 17.4669 17.8587C17.4669 17.8587 17.4669 17.8405 17.4851 17.8405C17.4851 17.8405 17.4851 17.8405 17.4851 17.8222L17.5034 17.8039C17.5034 17.7857 17.5216 17.7674 17.5216 17.7674C17.5216 17.7492 17.5399 17.7492 17.5399 17.7309C17.5399 17.7309 17.5399 17.7126 17.5581 17.7126C17.5581 17.6944 17.5581 17.6944 17.5764 17.6761V17.6579C17.5764 17.6396 17.5946 17.6213 17.5946 17.6031V17.5848C17.5946 17.5666 17.5946 17.5666 17.5946 17.5483V17.53C17.5946 17.5118 17.6129 17.4935 17.6129 17.4753V17.457C17.6129 17.4387 17.6129 17.4387 17.6129 17.4205C17.6129 17.4022 17.6129 17.3657 17.6311 17.3474C17.6311 17.3474 17.6311 17.3474 17.6311 17.3292C17.6311 17.3109 17.6311 17.2926 17.6311 17.2744C17.6311 17.2561 17.6311 17.2379 17.6311 17.2013V17.1831L17.6129 9.605C17.6129 8.87458 17.0288 8.30851 16.2988 8.30851C15.5687 8.30851 14.9846 8.89284 15.0029 9.62326L15.0211 14.937L5.60327 9.55022C6.13257 8.80154 6.73487 8.07112 7.41018 7.41374C10.4947 4.32773 14.6013 2.61124 18.9817 2.61124C23.3622 2.61124 27.4688 4.30947 30.5533 7.41374C31.2286 8.08938 31.8309 8.80154 32.3602 9.56848C32.342 9.56848 32.3237 9.58674 32.3055 9.58674L22.9971 14.9188L23.0154 9.605C23.0154 8.87458 22.4313 8.29025 21.7195 8.29025C21.0077 8.29025 20.4054 8.87458 20.4054 9.58674L20.3871 17.1648V17.1831C20.3871 17.2013 20.3871 17.2196 20.3871 17.2561C20.3871 17.2744 20.3871 17.2926 20.3871 17.3109C20.3871 17.3109 20.3871 17.3109 20.3871 17.3292C20.3871 17.3474 20.3871 17.384 20.4054 17.4022C20.4054 17.4205 20.4054 17.4205 20.4054 17.4387V17.457C20.4054 17.4753 20.4236 17.4935 20.4236 17.5118C20.4236 17.5118 20.4236 17.5118 20.4236 17.53C20.4236 17.5483 20.4236 17.5483 20.4236 17.5666V17.5848C20.4236 17.6031 20.4419 17.6213 20.4419 17.6396V17.6579C20.4419 17.6761 20.4419 17.6761 20.4601 17.6944C20.4601 17.6944 20.4601 17.7126 20.4784 17.7126C20.4784 17.7309 20.4966 17.7309 20.4966 17.7492C20.4966 17.7674 20.5149 17.7857 20.5149 17.7857L20.5331 17.8039C20.5331 17.8039 20.5331 17.8039 20.5331 17.8222C20.5331 17.8222 20.5331 17.8405 20.5514 17.8405C20.5696 17.8587 20.5696 17.877 20.5879 17.8952C20.5879 17.9135 20.6061 17.9135 20.6244 17.9318L20.6427 17.95L20.6609 17.9683L20.6792 17.9865L20.6974 18.0048C20.7157 18.0231 20.7339 18.0596 20.7522 18.0778L20.7704 18.0961C20.7887 18.1144 20.8069 18.1326 20.8252 18.1509L20.8434 18.1691C20.8617 18.1874 20.8799 18.1874 20.8799 18.2057C20.8982 18.2057 20.8982 18.2239 20.9164 18.2239C20.9347 18.2422 20.9529 18.2605 20.9894 18.2605C21.0077 18.2605 21.0077 18.2787 21.0259 18.2787C21.0259 18.2787 21.0442 18.2787 21.0442 18.297L27.5965 21.8395C27.7973 21.9491 27.9981 22.0038 28.2171 22.0038C28.6734 22.0038 29.1297 21.7482 29.367 21.3099C29.7137 20.6708 29.4765 19.8856 28.8377 19.5387L24.366 17.1283L33.6013 11.8328C33.6378 11.8145 33.6561 11.7963 33.6926 11.778C34.7695 13.9875 35.3535 16.4344 35.3535 18.9543C35.3535 23.3734 33.6378 27.482 30.5533 30.568Z" fill="#0CC466"/>
</svg>
