<svg width="42" height="40" viewBox="0 0 42 40" fill="none" xmlns="http://www.w3.org/2000/svg">
<path d="M21.9511 1.69098C21.8172 1.27896 21.4332 1 21 1C20.5668 1 20.1828 1.27896 20.0489 1.69098L16.0077 14.1287H2.92993C2.4967 14.1287 2.11274 14.4076 1.97887 14.8197C1.845 15.2317 1.99165 15.6831 2.34214 15.9377L12.9223 23.6246L8.88102 36.0623C8.74715 36.4743 8.89381 36.9257 9.24429 37.1803C9.59478 37.435 10.0694 37.435 10.4199 37.1803L21 29.4934L31.5801 37.1803C31.9306 37.435 32.4052 37.435 32.7557 37.1803C33.1062 36.9257 33.2528 36.4743 33.119 36.0623L29.0777 23.6246L39.6579 15.9377C40.0084 15.6831 40.155 15.2317 40.0211 14.8197C39.8873 14.4076 39.5033 14.1287 39.0701 14.1287L25.9923 14.1287L21.9511 1.69098Z" stroke="#0CC466" stroke-width="2" stroke-linejoin="round"/>
<path d="M21 2L21.0112 20.9846L39.0701 15.1287L21.0181 21.0059L32.1679 36.3713L21 21.019L9.83208 36.3713L20.9819 21.0059L2.92993 15.1287L20.9888 20.9846L21 2Z" stroke="#0CC466" stroke-width="2" stroke-linejoin="round"/>
</svg>
