<svg width="50" height="50" viewBox="0 0 50 50" fill="none" xmlns="http://www.w3.org/2000/svg">
<path d="M24.9998 33.3332C29.6022 33.3332 33.3332 29.6022 33.3332 24.9998C33.3332 20.3975 29.6022 16.6665 24.9998 16.6665C20.3975 16.6665 16.6665 20.3975 16.6665 24.9998C16.6665 29.6022 20.3975 33.3332 24.9998 33.3332Z" stroke="#0CC466" stroke-width="2.5" stroke-linecap="round" stroke-linejoin="round"/>
<path d="M25 43.75C35.3553 43.75 43.75 35.3553 43.75 25C43.75 14.6447 35.3553 6.25 25 6.25C14.6447 6.25 6.25 14.6447 6.25 25C6.25 35.3553 14.6447 43.75 25 43.75Z" stroke="#0CC466" stroke-width="2.5" stroke-linecap="round" stroke-linejoin="round"/>
<path d="M31.25 31.25L38.2292 38.2292" stroke="#0CC466" stroke-width="2.5" stroke-linecap="round" stroke-linejoin="round"/>
<path d="M18.7502 31.25L11.771 38.2292" stroke="#0CC466" stroke-width="2.5" stroke-linecap="round" stroke-linejoin="round"/>
<path d="M11.771 11.7708L18.7502 18.7499" stroke="#0CC466" stroke-width="2.5" stroke-linecap="round" stroke-linejoin="round"/>
<path d="M38.2292 11.7708L31.25 18.7499" stroke="#0CC466" stroke-width="2.5" stroke-linecap="round" stroke-linejoin="round"/>
</svg>
