<svg width="50" height="50" viewBox="0 0 50 50" fill="none" xmlns="http://www.w3.org/2000/svg">
<path d="M35.4168 16.6667V10.4167C35.4168 9.86417 35.1973 9.33427 34.8066 8.94357C34.4159 8.55287 33.886 8.33337 33.3335 8.33337H12.5002C11.3951 8.33337 10.3353 8.77236 9.55388 9.55376C8.77248 10.3352 8.3335 11.395 8.3335 12.5M8.3335 12.5C8.3335 13.6051 8.77248 14.6649 9.55388 15.4463C10.3353 16.2277 11.3951 16.6667 12.5002 16.6667H37.5002C38.0527 16.6667 38.5826 16.8862 38.9733 17.2769C39.364 17.6676 39.5835 18.1975 39.5835 18.75V25M8.3335 12.5V37.5C8.3335 38.6051 8.77248 39.6649 9.55388 40.4463C10.3353 41.2277 11.3951 41.6667 12.5002 41.6667H37.5002C38.0527 41.6667 38.5826 41.4472 38.9733 41.0565C39.364 40.6658 39.5835 40.1359 39.5835 39.5834V33.3334" stroke="#0CC466" stroke-width="2.5" stroke-linecap="round" stroke-linejoin="round"/>
<path d="M41.6665 25V33.3333H33.3332C32.2281 33.3333 31.1683 32.8943 30.3869 32.1129C29.6055 31.3315 29.1665 30.2717 29.1665 29.1667C29.1665 28.0616 29.6055 27.0018 30.3869 26.2204C31.1683 25.439 32.2281 25 33.3332 25H41.6665Z" stroke="#0CC466" stroke-width="2.5" stroke-linecap="round" stroke-linejoin="round"/>
</svg>
