<svg width="50" height="50" viewBox="0 0 50 50" fill="none" xmlns="http://www.w3.org/2000/svg">
<path d="M35.4165 22.9165H14.5832C12.282 22.9165 10.4165 24.782 10.4165 27.0832V39.5832C10.4165 41.8844 12.282 43.7498 14.5832 43.7498H35.4165C37.7177 43.7498 39.5832 41.8844 39.5832 39.5832V27.0832C39.5832 24.782 37.7177 22.9165 35.4165 22.9165Z" stroke="#0CC466" stroke-width="2.5" stroke-linecap="round" stroke-linejoin="round"/>
<path d="M24.9998 35.4167C26.1504 35.4167 27.0832 34.4839 27.0832 33.3333C27.0832 32.1827 26.1504 31.25 24.9998 31.25C23.8492 31.25 22.9165 32.1827 22.9165 33.3333C22.9165 34.4839 23.8492 35.4167 24.9998 35.4167Z" stroke="#0CC466" stroke-width="2.5" stroke-linecap="round" stroke-linejoin="round"/>
<path d="M16.6665 22.9167V14.5833C16.6665 12.3732 17.5445 10.2536 19.1073 8.69078C20.6701 7.12797 22.7897 6.25 24.9998 6.25C27.21 6.25 29.3296 7.12797 30.8924 8.69078C32.4552 10.2536 33.3332 12.3732 33.3332 14.5833V22.9167" stroke="#0CC466" stroke-width="2.5" stroke-linecap="round" stroke-linejoin="round"/>
</svg>
