<svg width="50" height="50" viewBox="0 0 50 50" fill="none" xmlns="http://www.w3.org/2000/svg">
<path d="M14.5835 12.5H10.4168C9.26624 12.5 8.3335 13.4327 8.3335 14.5833V20.8333C8.3335 21.9839 9.26624 22.9167 10.4168 22.9167H14.5835C15.7341 22.9167 16.6668 21.9839 16.6668 20.8333V14.5833C16.6668 13.4327 15.7341 12.5 14.5835 12.5Z" stroke="#0CC466" stroke-width="2.5" stroke-linecap="round" stroke-linejoin="round"/>
<path d="M12.5 8.33337V12.5" stroke="#0CC466" stroke-width="2.5" stroke-linecap="round" stroke-linejoin="round"/>
<path d="M12.5 22.9166V41.6666" stroke="#0CC466" stroke-width="2.5" stroke-linecap="round" stroke-linejoin="round"/>
<path d="M27.0835 29.1666H22.9168C21.7662 29.1666 20.8335 30.0994 20.8335 31.25V37.5C20.8335 38.6506 21.7662 39.5833 22.9168 39.5833H27.0835C28.2341 39.5833 29.1668 38.6506 29.1668 37.5V31.25C29.1668 30.0994 28.2341 29.1666 27.0835 29.1666Z" stroke="#0CC466" stroke-width="2.5" stroke-linecap="round" stroke-linejoin="round"/>
<path d="M25 8.33337V29.1667" stroke="#0CC466" stroke-width="2.5" stroke-linecap="round" stroke-linejoin="round"/>
<path d="M25 39.5834V41.6667" stroke="#0CC466" stroke-width="2.5" stroke-linecap="round" stroke-linejoin="round"/>
<path d="M39.5835 10.4166H35.4168C34.2662 10.4166 33.3335 11.3494 33.3335 12.5V20.8333C33.3335 21.9839 34.2662 22.9166 35.4168 22.9166H39.5835C40.7341 22.9166 41.6668 21.9839 41.6668 20.8333V12.5C41.6668 11.3494 40.7341 10.4166 39.5835 10.4166Z" stroke="#0CC466" stroke-width="2.5" stroke-linecap="round" stroke-linejoin="round"/>
<path d="M37.5 8.33337V10.4167" stroke="#0CC466" stroke-width="2.5" stroke-linecap="round" stroke-linejoin="round"/>
<path d="M37.5 22.9166V41.6666" stroke="#0CC466" stroke-width="2.5" stroke-linecap="round" stroke-linejoin="round"/>
</svg>
