<svg width="50" height="50" viewBox="0 0 50 50" fill="none" xmlns="http://www.w3.org/2000/svg">
<path d="M18.75 31.25L31.25 18.75" stroke="#0CC466" stroke-width="2.5" stroke-linecap="round" stroke-linejoin="round"/>
<path d="M19.7917 20.8333C20.367 20.8333 20.8333 20.367 20.8333 19.7917C20.8333 19.2164 20.367 18.75 19.7917 18.75C19.2164 18.75 18.75 19.2164 18.75 19.7917C18.75 20.367 19.2164 20.8333 19.7917 20.8333Z" fill="#0CC466" stroke="#0CC466" stroke-width="2.5" stroke-linecap="round" stroke-linejoin="round"/>
<path d="M30.2087 31.2501C30.784 31.2501 31.2503 30.7837 31.2503 30.2084C31.2503 29.6331 30.784 29.1667 30.2087 29.1667C29.6334 29.1667 29.167 29.6331 29.167 30.2084C29.167 30.7837 29.6334 31.2501 30.2087 31.2501Z" fill="#0CC466" stroke="#0CC466" stroke-width="2.5" stroke-linecap="round" stroke-linejoin="round"/>
<path d="M25 43.75C35.3553 43.75 43.75 35.3553 43.75 25C43.75 14.6447 35.3553 6.25 25 6.25C14.6447 6.25 6.25 14.6447 6.25 25C6.25 35.3553 14.6447 43.75 25 43.75Z" stroke="#0CC466" stroke-width="2.5" stroke-linecap="round" stroke-linejoin="round"/>
</svg>
