<svg width="50" height="50" viewBox="0 0 50 50" fill="none" xmlns="http://www.w3.org/2000/svg">
<path d="M25 43.75C35.3553 43.75 43.75 35.3553 43.75 25C43.75 14.6447 35.3553 6.25 25 6.25C14.6447 6.25 6.25 14.6447 6.25 25C6.25 35.3553 14.6447 43.75 25 43.75Z" stroke="#0CC466" stroke-width="2.5" stroke-linecap="round" stroke-linejoin="round"/>
<path d="M24.9998 27.0833C26.1504 27.0833 27.0832 26.1506 27.0832 25C27.0832 23.8494 26.1504 22.9166 24.9998 22.9166C23.8492 22.9166 22.9165 23.8494 22.9165 25C22.9165 26.1506 23.8492 27.0833 24.9998 27.0833Z" stroke="#0CC466" stroke-width="2.5" stroke-linecap="round" stroke-linejoin="round"/>
<path d="M27.9375 22.0625L33.3333 16.6666" stroke="#0CC466" stroke-width="2.5" stroke-linecap="round" stroke-linejoin="round"/>
<path d="M14.5835 25C14.5835 22.2374 15.681 19.5878 17.6345 17.6343C19.588 15.6808 22.2375 14.5834 25.0002 14.5834" stroke="#0CC466" stroke-width="2.5" stroke-linecap="round" stroke-linejoin="round"/>
</svg>
