<?xml version="1.0" encoding="utf-8"?>
<!-- Generator: Adobe Illustrator 23.1.1, SVG Export Plug-In . SVG Version: 6.00 Build 0)  -->
<svg version="1.1" id="Layer_1" xmlns="http://www.w3.org/2000/svg" xmlns:xlink="http://www.w3.org/1999/xlink" x="0px" y="0px"
	 viewBox="0 0 29 29" style="enable-background:new 0 0 29 29;" xml:space="preserve">
<style type="text/css">
	.st0{fill:#FFFFFF;}
	.st1{fill:#0D1E7E;}
	.st2{fill:#DC0032;}
</style>
<path class="st0" d="M16.3,12.9V0.1c0.4,0,0.8,0.1,1.1,0.2v10.5l7.5-6.3c0.2,0.3,0.5,0.5,0.7,0.8l-7.5,6.4h2.5l5.9-5
	c0.4,0.6,0.8,1.3,1.1,1.9l-3.6,3.1h4.6c0.1,0.4,0.1,0.8,0.2,1.3H16.3z M16.3,28.9c0.4,0,0.8-0.1,1.1-0.2v-9.9l7.1,6.1
	c0.6-0.5,1.1-1.1,1.5-1.8l-6-5.2h2.5l4.4,3.8c0.2-0.3,0.3-0.6,0.5-0.9l-3.4-3h4.5c0.1-0.4,0.2-0.8,0.2-1.3H16.3V28.9z M13,0.1
	c-0.4,0-0.8,0.1-1.1,0.2l0,10.5L4.2,4.3c-0.5,0.5-0.9,1-1.4,1.6l6.7,5.7H7.1L2,7.3C1.8,7.6,1.6,8,1.4,8.3l3.9,3.3H0.3
	c-0.1,0.4-0.1,0.8-0.2,1.3H13V0.1z M11.8,28.7c0.4,0.1,0.7,0.1,1.1,0.2V16.7H0.2c0.1,0.4,0.1,0.8,0.2,1.3h4.8l-3.6,3.2
	c0.4,0.7,0.8,1.4,1.3,2.1L9,17.9h2.5L4,24.5c0.2,0.2,0.4,0.4,0.6,0.6l7.3-6.3V28.7z"/>
<path class="st1" d="M17.5,10.8V0.3c2.9,0.6,5.5,2.1,7.5,4.1L17.5,10.8z M11.8,0.3c-3,0.5-5.6,2-7.6,4l7.6,6.5L11.8,0.3z M28.7,11.6
	c-0.2-1.1-0.6-2.1-1-3.1l-3.6,3.1H28.7z M27.5,20.9c0.5-0.9,0.8-1.9,1.1-3h-4.5L27.5,20.9z M11.8,18.8L4.6,25c2,1.9,4.5,3.2,7.3,3.7
	V18.8z M17.5,28.7c2.7-0.6,5.2-1.9,7.1-3.8l-7.1-6.1V28.7z M0.4,17.9c0.3,1.1,0.7,2.2,1.2,3.2l3.6-3.2H0.4z M1.4,8.3
	c-0.5,1-0.9,2.1-1.1,3.3h4.9L1.4,8.3z"/>
<path class="st2" d="M18.2,11.6l7.5-6.4c0.3,0.4,0.7,0.9,1,1.3l-5.9,5H18.2z M20.1,17.9l6,5.2c0.3-0.4,0.6-0.9,0.9-1.4l-4.4-3.8
	H20.1z M9.6,11.6L2.9,5.9C2.5,6.3,2.2,6.8,2,7.3l5.1,4.4H9.6z M9,17.9l-6.1,5.3c0.3,0.4,0.7,0.9,1.1,1.3l7.6-6.5H9z M13,28.9
	c0.5,0.1,1,0.1,1.5,0.1c0.6,0,1.2,0,1.8-0.1V16.7h12.5c0.1-0.7,0.2-1.4,0.2-2.2c0-0.5,0-1.1-0.1-1.6H16.3V0.1
	C15.7,0.1,15.1,0,14.5,0c-0.5,0-1,0-1.5,0.1v12.8H0.1C0,13.4,0,14,0,14.5c0,0.7,0.1,1.5,0.2,2.2H13V28.9z"/>
</svg>
