<svg width="132" height="24" viewBox="0 0 132 24" fill="none" xmlns="http://www.w3.org/2000/svg">
<path d="M15.3726 9.21688C15.1074 9.21688 14.826 9.01223 14.7438 8.76007L12.1484 0.77266C12.0663 0.520442 11.9337 0.520442 11.8516 0.77266L9.25665 8.76007C9.17451 9.01229 8.89304 9.21688 8.62788 9.21688H0.229282C-0.0358782 9.21688 -0.0771857 9.34322 0.137507 9.49935L6.93173 14.435C7.14642 14.5912 7.25404 14.9221 7.17189 15.1743L4.57703 23.1613C4.49488 23.4135 4.6025 23.4917 4.81719 23.3356L11.6114 18.4C11.8261 18.2438 12.1739 18.2438 12.3886 18.4L19.1829 23.3361C19.3975 23.4923 19.5052 23.4139 19.423 23.1617L16.8281 15.1748C16.746 14.9226 16.8536 14.5916 17.0683 14.4355L23.8625 9.49983C24.0772 9.3437 24.0359 9.21735 23.7707 9.21735H15.3726V9.21688Z" fill="#0CC466"/>
<path d="M42.3726 9.21688C42.1074 9.21688 41.826 9.01223 41.7438 8.76007L39.1484 0.77266C39.0663 0.520442 38.9337 0.520442 38.8516 0.77266L36.2567 8.76007C36.1745 9.01229 35.893 9.21688 35.6279 9.21688H27.2293C26.9641 9.21688 26.9228 9.34322 27.1375 9.49935L33.9317 14.435C34.1464 14.5912 34.254 14.9221 34.1719 15.1743L31.577 23.1613C31.4949 23.4135 31.6025 23.4917 31.8172 23.3356L38.6114 18.4C38.8261 18.2438 39.1739 18.2438 39.3886 18.4L46.1829 23.3361C46.3975 23.4923 46.5052 23.4139 46.423 23.1617L43.8281 15.1748C43.746 14.9226 43.8536 14.5916 44.0683 14.4355L50.8625 9.49983C51.0772 9.3437 51.0359 9.21735 50.7707 9.21735H42.3726V9.21688Z" fill="#0CC466"/>
<path d="M69.3726 9.21688C69.1074 9.21688 68.826 9.01223 68.7438 8.76007L66.1484 0.77266C66.0663 0.520442 65.9337 0.520442 65.8516 0.77266L63.2567 8.76007C63.1745 9.01229 62.893 9.21688 62.6279 9.21688H54.2293C53.9641 9.21688 53.9228 9.34322 54.1375 9.49935L60.9317 14.435C61.1464 14.5912 61.254 14.9221 61.1719 15.1743L58.577 23.1613C58.4949 23.4135 58.6025 23.4917 58.8172 23.3356L65.6114 18.4C65.8261 18.2438 66.1739 18.2438 66.3886 18.4L73.1829 23.3361C73.3975 23.4923 73.5052 23.4139 73.423 23.1617L70.8281 15.1748C70.746 14.9226 70.8536 14.5916 71.0683 14.4355L77.8625 9.49983C78.0772 9.3437 78.0359 9.21735 77.7707 9.21735H69.3726V9.21688Z" fill="#0CC466"/>
<path d="M96.3726 9.21688C96.1074 9.21688 95.826 9.01223 95.7438 8.76007L93.1484 0.77266C93.0663 0.520442 92.9337 0.520442 92.8516 0.77266L90.2567 8.76007C90.1745 9.01229 89.893 9.21688 89.6279 9.21688H81.2293C80.9641 9.21688 80.9228 9.34322 81.1375 9.49935L87.9317 14.435C88.1464 14.5912 88.254 14.9221 88.1719 15.1743L85.577 23.1613C85.4949 23.4135 85.6025 23.4917 85.8172 23.3356L92.6114 18.4C92.8261 18.2438 93.1739 18.2438 93.3886 18.4L100.183 23.3361C100.398 23.4923 100.505 23.4139 100.423 23.1617L97.8281 15.1748C97.746 14.9226 97.8536 14.5916 98.0683 14.4355L104.862 9.49983C105.077 9.3437 105.036 9.21735 104.771 9.21735H96.3726V9.21688Z" fill="#0CC466"/>
<path d="M123.373 9.21688C123.107 9.21688 122.826 9.01223 122.744 8.76007L120.148 0.77266C120.066 0.520442 119.934 0.520442 119.852 0.77266L117.257 8.76007C117.175 9.01229 116.893 9.21688 116.628 9.21688H108.229C107.964 9.21688 107.923 9.34322 108.138 9.49935L114.932 14.435C115.146 14.5912 115.254 14.9221 115.172 15.1743L112.577 23.1613C112.495 23.4135 112.602 23.4917 112.817 23.3356L119.611 18.4C119.826 18.2438 120.174 18.2438 120.389 18.4L127.183 23.3361C127.398 23.4923 127.505 23.4139 127.423 23.1617L124.828 15.1748C124.746 14.9226 124.854 14.5916 125.068 14.4355L131.862 9.49983C132.077 9.3437 132.036 9.21735 131.771 9.21735H123.373V9.21688Z" fill="#010002" fill-opacity="0.1"/>
<path d="M123.373 9.21688C123.107 9.21688 122.826 9.01223 122.744 8.76007L120.148 0.77266C120.066 0.520442 119.934 0.520442 119.852 0.77266L117.257 8.76007C117.175 9.01229 116.893 9.21688 116.628 9.21688H108.229C107.964 9.21688 107.923 9.34322 108.138 9.49935L114.932 14.435C115.146 14.5912 115.254 14.9221 115.172 15.1743L112.577 23.1613C112.495 23.4135 112.602 23.4917 112.817 23.3356L119.611 18.4C119.826 18.2438 120.174 18.2438 120.389 18.4L127.183 23.3361C127.398 23.4923 127.505 23.4139 127.423 23.1617L124.828 15.1748C124.746 14.9226 124.854 14.5916 125.068 14.4355L131.862 9.49983C132.077 9.3437 132.036 9.21735 131.771 9.21735H123.373V9.21688Z" fill="url(#paint0_linear_8699_17542)"/>
<defs>
<linearGradient id="paint0_linear_8699_17542" x1="108" y1="8.8" x2="132" y2="8.8" gradientUnits="userSpaceOnUse">
<stop offset="0.500868" stop-color="#0CC41F"/>
<stop offset="0.500868" stop-color="#0CC466" stop-opacity="0"/>
</linearGradient>
</defs>
</svg>
